STARTFONT 2.1
FONT -DEC-Terminal-Medium-R-Normal--18-180-75-75-C-110-iso8859-5
SIZE 18 75 75
FONTBOUNDINGBOX 11 20 0 -5

STARTPROPERTIES 24
FOUNDRY "Monotype"
FAMILY_NAME "VT"
WEIGHT_NAME "Regular"
SLANT "R"
SETWIDTH_NAME "Normal"
ADD_STYLE_NAME ""
PIXEL_SIZE 18
POINT_SIZE 180
RESOLUTION_X 75
RESOLUTION_Y 75
SPACING "C"
AVERAGE_WIDTH 110
CHARSET_REGISTRY "iso8859"
CHARSET_ENCODING "5"
FACE_NAME "VT ISO Latin Cyrillic"
_DEC_DEVICE_FONTNAMES "PS=vt-isolatincyrillic"
COPYRIGHT "Copyright (c) 1993 Monotype Typography Ltd."
CAP_HEIGHT 11
X_HEIGHT 8
WEIGHT 10
QUAD_WIDTH 11
DEFAULT_CHAR 160
FONT_DESCENT 5
FONT_ASCENT 15
ENDPROPERTIES

CHARS 191

STARTCHAR space
ENCODING 32
SWIDTH 568 0
DWIDTH 11 0
BBX 11 20 0 -5
BITMAP
0000
0000
0000
0000
0000
0000
0000
0000
0000
0000
0000
0000
0000
0000
0000
0000
0000
0000
0000
0000
ENDCHAR

STARTCHAR exclam
ENCODING 33
SWIDTH 568 0
DWIDTH 11 0
BBX 11 20 0 -5
BITMAP
0000
0000
0000
0600
0600
0600
0600
0600
0600
0600
0600
0000
0600
0F00
0600
0000
0000
0000
0000
0000
ENDCHAR

STARTCHAR quotedbl
ENCODING 34
SWIDTH 568 0
DWIDTH 11 0
BBX 11 20 0 -5
BITMAP
0000
0000
0000
1980
1980
1980
1980
1980
0000
0000
0000
0000
0000
0000
0000
0000
0000
0000
0000
0000
ENDCHAR

STARTCHAR numbersign
ENCODING 35
SWIDTH 568 0
DWIDTH 11 0
BBX 11 20 0 -5
BITMAP
0000
0000
0000
0000
1B00
1B00
1B00
1B00
1B00
7FC0
1B00
1B00
7FC0
1B00
1B00
1B00
1B00
1B00
0000
0000
ENDCHAR

STARTCHAR dollar
ENCODING 36
SWIDTH 568 0
DWIDTH 11 0
BBX 11 20 0 -5
BITMAP
0000
0000
0200
0200
1EC0
39C0
30C0
3000
3800
1F80
00C0
00C0
30C0
38C0
3780
0400
0400
0400
0000
0000
ENDCHAR

STARTCHAR percent
ENCODING 37
SWIDTH 568 0
DWIDTH 11 0
BBX 11 20 0 -5
BITMAP
0000
0000
0000
7000
D800
8880
D900
7200
0400
0800
11C0
2360
4220
0360
01C0
0000
0000
0000
0000
0000
ENDCHAR

STARTCHAR ampersand
ENCODING 38
SWIDTH 568 0
DWIDTH 11 0
BBX 11 20 0 -5
BITMAP
0000
0000
0000
0D00
1F00
1900
1800
1800
0800
1D80
3500
3700
3300
3300
1D80
0000
0000
0000
0000
0000
ENDCHAR

STARTCHAR quoteright
ENCODING 39
SWIDTH 568 0
DWIDTH 11 0
BBX 11 20 0 -5
BITMAP
0000
0000
0000
0700
0600
0600
0C00
0800
0000
0000
0000
0000
0000
0000
0000
0000
0000
0000
0000
0000
ENDCHAR

STARTCHAR parenleft
ENCODING 40
SWIDTH 568 0
DWIDTH 11 0
BBX 11 20 0 -5
BITMAP
0000
0000
0100
0200
0600
0400
0C00
0C00
0C00
0C00
0C00
0C00
0C00
0C00
0400
0600
0200
0100
0000
0000
ENDCHAR

STARTCHAR parenright
ENCODING 41
SWIDTH 568 0
DWIDTH 11 0
BBX 11 20 0 -5
BITMAP
0000
0000
0800
0400
0600
0200
0300
0300
0300
0300
0300
0300
0300
0300
0200
0600
0400
0800
0000
0000
ENDCHAR

STARTCHAR asterisk
ENCODING 42
SWIDTH 568 0
DWIDTH 11 0
BBX 11 20 0 -5
BITMAP
0000
0000
0000
0000
0600
0600
36C0
1F80
0F00
0F00
1980
1980
0000
0000
0000
0000
0000
0000
0000
0000
ENDCHAR

STARTCHAR plus
ENCODING 43
SWIDTH 568 0
DWIDTH 11 0
BBX 11 20 0 -5
BITMAP
0000
0000
0000
0000
0000
0600
0600
0600
0600
3FC0
3FC0
0600
0600
0600
0600
0000
0000
0000
0000
0000
ENDCHAR

STARTCHAR comma
ENCODING 44
SWIDTH 568 0
DWIDTH 11 0
BBX 11 20 0 -5
BITMAP
0000
0000
0000
0000
0000
0000
0000
0000
0000
0000
0000
0000
0700
0700
0600
0600
0C00
0400
0000
0000
ENDCHAR

STARTCHAR minus
ENCODING 45
SWIDTH 568 0
DWIDTH 11 0
BBX 11 20 0 -5
BITMAP
0000
0000
0000
0000
0000
0000
0000
0000
0000
7FC0
7FC0
0000
0000
0000
0000
0000
0000
0000
0000
0000
ENDCHAR

STARTCHAR period
ENCODING 46
SWIDTH 568 0
DWIDTH 11 0
BBX 11 20 0 -5
BITMAP
0000
0000
0000
0000
0000
0000
0000
0000
0000
0000
0000
0000
0600
0F00
0600
0000
0000
0000
0000
0000
ENDCHAR

STARTCHAR slash
ENCODING 47
SWIDTH 568 0
DWIDTH 11 0
BBX 11 20 0 -5
BITMAP
0000
0000
0000
00C0
0080
0180
0100
0300
0200
0600
0400
0C00
0800
1800
1000
3000
0000
0000
0000
0000
ENDCHAR

STARTCHAR zero
ENCODING 48
SWIDTH 568 0
DWIDTH 11 0
BBX 11 20 0 -5
BITMAP
0000
0000
0000
0600
0F00
0900
1980
1980
1980
1980
1980
1980
0900
0F00
0600
0000
0000
0000
0000
0000
ENDCHAR

STARTCHAR one
ENCODING 49
SWIDTH 568 0
DWIDTH 11 0
BBX 11 20 0 -5
BITMAP
0000
0000
0000
0600
0E00
1E00
1600
0600
0600
0600
0600
0600
0600
0600
1F80
0000
0000
0000
0000
0000
ENDCHAR

STARTCHAR two
ENCODING 50
SWIDTH 568 0
DWIDTH 11 0
BBX 11 20 0 -5
BITMAP
0000
0000
0000
0F00
1980
1180
0180
0100
0300
0600
0C00
0C00
1800
1980
1F80
0000
0000
0000
0000
0000
ENDCHAR

STARTCHAR three
ENCODING 51
SWIDTH 568 0
DWIDTH 11 0
BBX 11 20 0 -5
BITMAP
0000
0000
0000
0F00
1980
0180
0180
0100
0E00
0100
0180
0180
0180
1980
0F00
0000
0000
0000
0000
0000
ENDCHAR

STARTCHAR four
ENCODING 52
SWIDTH 568 0
DWIDTH 11 0
BBX 11 20 0 -5
BITMAP
0000
0000
0000
0180
0380
0780
0580
0D80
0980
1980
1980
1FC0
0180
0180
0180
0000
0000
0000
0000
0000
ENDCHAR

STARTCHAR five
ENCODING 53
SWIDTH 568 0
DWIDTH 11 0
BBX 11 20 0 -5
BITMAP
0000
0000
0000
1F00
1800
1800
1800
1E00
1300
0180
0180
0180
0180
1B00
0E00
0000
0000
0000
0000
0000
ENDCHAR

STARTCHAR six
ENCODING 54
SWIDTH 568 0
DWIDTH 11 0
BBX 11 20 0 -5
BITMAP
0000
0000
0000
0300
0600
0C00
0C00
1800
1F00
1980
1980
1980
1980
0F00
0600
0000
0000
0000
0000
0000
ENDCHAR

STARTCHAR seven
ENCODING 55
SWIDTH 568 0
DWIDTH 11 0
BBX 11 20 0 -5
BITMAP
0000
0000
0000
1F80
1980
0180
0180
0300
0300
0300
0600
0600
0C00
0C00
0C00
0000
0000
0000
0000
0000
ENDCHAR

STARTCHAR eight
ENCODING 56
SWIDTH 568 0
DWIDTH 11 0
BBX 11 20 0 -5
BITMAP
0000
0000
0000
0F00
1980
1980
1980
0900
0F00
1980
1980
1980
1980
1980
0F00
0000
0000
0000
0000
0000
ENDCHAR

STARTCHAR nine
ENCODING 57
SWIDTH 568 0
DWIDTH 11 0
BBX 11 20 0 -5
BITMAP
0000
0000
0000
0600
0F00
1980
1980
1980
1980
0F80
0180
0300
0300
0600
0C00
0000
0000
0000
0000
0000
ENDCHAR

STARTCHAR colon
ENCODING 58
SWIDTH 568 0
DWIDTH 11 0
BBX 11 20 0 -5
BITMAP
0000
0000
0000
0000
0000
0000
0600
0F00
0600
0000
0000
0000
0600
0F00
0600
0000
0000
0000
0000
0000
ENDCHAR

STARTCHAR semicolon
ENCODING 59
SWIDTH 568 0
DWIDTH 11 0
BBX 11 20 0 -5
BITMAP
0000
0000
0000
0000
0000
0000
0600
0F00
0600
0000
0000
0000
0E00
0E00
0C00
0C00
1800
0800
0000
0000
ENDCHAR

STARTCHAR less
ENCODING 60
SWIDTH 568 0
DWIDTH 11 0
BBX 11 20 0 -5
BITMAP
0000
0000
0000
0000
0000
00C0
03C0
0F00
3C00
7000
3C00
0F00
03C0
00C0
0000
0000
0000
0000
0000
0000
ENDCHAR

STARTCHAR equal
ENCODING 61
SWIDTH 568 0
DWIDTH 11 0
BBX 11 20 0 -5
BITMAP
0000
0000
0000
0000
0000
0000
0000
3FC0
3FC0
0000
0000
3FC0
3FC0
0000
0000
0000
0000
0000
0000
0000
ENDCHAR

STARTCHAR greater
ENCODING 62
SWIDTH 568 0
DWIDTH 11 0
BBX 11 20 0 -5
BITMAP
0000
0000
0000
0000
0000
6000
7800
1E00
0780
01C0
0780
1E00
7800
6000
0000
0000
0000
0000
0000
0000
ENDCHAR

STARTCHAR question
ENCODING 63
SWIDTH 568 0
DWIDTH 11 0
BBX 11 20 0 -5
BITMAP
0000
0000
0000
1F80
31C0
00C0
00C0
00C0
0380
0E00
0C00
0000
0C00
1E00
0C00
0000
0000
0000
0000
0000
ENDCHAR

STARTCHAR at
ENCODING 64
SWIDTH 568 0
DWIDTH 11 0
BBX 11 20 0 -5
BITMAP
0000
0000
0000
0E00
3180
2080
60C0
63C0
64C0
6CC0
6CC0
6CC0
67E0
6000
3000
3840
0F80
0000
0000
0000
ENDCHAR

STARTCHAR A
ENCODING 65
SWIDTH 568 0
DWIDTH 11 0
BBX 11 20 0 -5
BITMAP
0000
0000
0000
0400
0E00
0A00
1B00
1B00
3180
3180
3180
3F80
60C0
60C0
60C0
0000
0000
0000
0000
0000
ENDCHAR

STARTCHAR B
ENCODING 66
SWIDTH 568 0
DWIDTH 11 0
BBX 11 20 0 -5
BITMAP
0000
0000
0000
3F00
3180
3180
3180
3180
3F00
3180
30C0
30C0
30C0
30C0
3F80
0000
0000
0000
0000
0000
ENDCHAR

STARTCHAR C
ENCODING 67
SWIDTH 568 0
DWIDTH 11 0
BBX 11 20 0 -5
BITMAP
0000
0000
0000
0F80
18C0
3000
3000
3000
3000
3000
3000
3000
3040
18C0
0F80
0000
0000
0000
0000
0000
ENDCHAR

STARTCHAR D
ENCODING 68
SWIDTH 568 0
DWIDTH 11 0
BBX 11 20 0 -5
BITMAP
0000
0000
0000
3F00
3180
30C0
30C0
30C0
30C0
30C0
30C0
30C0
30C0
3180
3F00
0000
0000
0000
0000
0000
ENDCHAR

STARTCHAR E
ENCODING 69
SWIDTH 568 0
DWIDTH 11 0
BBX 11 20 0 -5
BITMAP
0000
0000
0000
1FC0
1800
1800
1800
1800
1F80
1800
1800
1800
1800
1800
1FC0
0000
0000
0000
0000
0000
ENDCHAR

STARTCHAR F
ENCODING 70
SWIDTH 568 0
DWIDTH 11 0
BBX 11 20 0 -5
BITMAP
0000
0000
0000
1FC0
1800
1800
1800
1800
1F80
1800
1800
1800
1800
1800
1800
0000
0000
0000
0000
0000
ENDCHAR

STARTCHAR G
ENCODING 71
SWIDTH 568 0
DWIDTH 11 0
BBX 11 20 0 -5
BITMAP
0000
0000
0000
0F80
18C0
3000
3000
3000
3000
31C0
30C0
30C0
30C0
18C0
0FC0
0000
0000
0000
0000
0000
ENDCHAR

STARTCHAR H
ENCODING 72
SWIDTH 568 0
DWIDTH 11 0
BBX 11 20 0 -5
BITMAP
0000
0000
0000
30C0
30C0
30C0
30C0
30C0
3FC0
30C0
30C0
30C0
30C0
30C0
30C0
0000
0000
0000
0000
0000
ENDCHAR

STARTCHAR I
ENCODING 73
SWIDTH 568 0
DWIDTH 11 0
BBX 11 20 0 -5
BITMAP
0000
0000
0000
1F80
0600
0600
0600
0600
0600
0600
0600
0600
0600
0600
1F80
0000
0000
0000
0000
0000
ENDCHAR

STARTCHAR J
ENCODING 74
SWIDTH 568 0
DWIDTH 11 0
BBX 11 20 0 -5
BITMAP
0000
0000
0000
0180
0180
0180
0180
0180
0180
0180
0180
0180
0180
3180
1F00
0000
0000
0000
0000
0000
ENDCHAR

STARTCHAR K
ENCODING 75
SWIDTH 568 0
DWIDTH 11 0
BBX 11 20 0 -5
BITMAP
0000
0000
0000
30C0
30C0
3180
3300
3600
3C00
3E00
3300
3300
3180
30C0
30C0
0000
0000
0000
0000
0000
ENDCHAR

STARTCHAR L
ENCODING 76
SWIDTH 568 0
DWIDTH 11 0
BBX 11 20 0 -5
BITMAP
0000
0000
0000
1800
1800
1800
1800
1800
1800
1800
1800
1800
1800
1800
1FC0
0000
0000
0000
0000
0000
ENDCHAR

STARTCHAR M
ENCODING 77
SWIDTH 568 0
DWIDTH 11 0
BBX 11 20 0 -5
BITMAP
0000
0000
0000
30C0
30C0
39C0
39C0
3FC0
36C0
36C0
36C0
36C0
30C0
30C0
30C0
0000
0000
0000
0000
0000
ENDCHAR

STARTCHAR N
ENCODING 78
SWIDTH 568 0
DWIDTH 11 0
BBX 11 20 0 -5
BITMAP
0000
0000
0000
30C0
38C0
38C0
34C0
34C0
34C0
32C0
32C0
32C0
31C0
31C0
30C0
0000
0000
0000
0000
0000
ENDCHAR

STARTCHAR O
ENCODING 79
SWIDTH 568 0
DWIDTH 11 0
BBX 11 20 0 -5
BITMAP
0000
0000
0000
0F00
1980
30C0
30C0
30C0
30C0
30C0
30C0
30C0
30C0
1980
0F00
0000
0000
0000
0000
0000
ENDCHAR

STARTCHAR P
ENCODING 80
SWIDTH 568 0
DWIDTH 11 0
BBX 11 20 0 -5
BITMAP
0000
0000
0000
1F80
18C0
18C0
18C0
18C0
18C0
1F80
1800
1800
1800
1800
1800
0000
0000
0000
0000
0000
ENDCHAR

STARTCHAR Q
ENCODING 81
SWIDTH 568 0
DWIDTH 11 0
BBX 11 20 0 -5
BITMAP
0000
0000
0000
0F00
1980
30C0
30C0
30C0
30C0
30C0
30C0
30C0
30C0
1B80
0F00
0300
0180
00C0
0000
0000
ENDCHAR

STARTCHAR R
ENCODING 82
SWIDTH 568 0
DWIDTH 11 0
BBX 11 20 0 -5
BITMAP
0000
0000
0000
3F80
30C0
30C0
30C0
30C0
30C0
3F00
3180
3180
30C0
30C0
30C0
0000
0000
0000
0000
0000
ENDCHAR

STARTCHAR S
ENCODING 83
SWIDTH 568 0
DWIDTH 11 0
BBX 11 20 0 -5
BITMAP
0000
0000
0000
0F00
1980
3000
3000
3C00
1F00
0780
01C0
00C0
00C0
3180
1F00
0000
0000
0000
0000
0000
ENDCHAR

STARTCHAR T
ENCODING 84
SWIDTH 568 0
DWIDTH 11 0
BBX 11 20 0 -5
BITMAP
0000
0000
0000
3FC0
0600
0600
0600
0600
0600
0600
0600
0600
0600
0600
0600
0000
0000
0000
0000
0000
ENDCHAR

STARTCHAR U
ENCODING 85
SWIDTH 568 0
DWIDTH 11 0
BBX 11 20 0 -5
BITMAP
0000
0000
0000
30C0
30C0
30C0
30C0
30C0
30C0
30C0
30C0
30C0
30C0
1980
0F00
0000
0000
0000
0000
0000
ENDCHAR

STARTCHAR V
ENCODING 86
SWIDTH 568 0
DWIDTH 11 0
BBX 11 20 0 -5
BITMAP
0000
0000
0000
60C0
60C0
60C0
60C0
3180
3180
3180
1B00
1B00
0A00
0E00
0400
0000
0000
0000
0000
0000
ENDCHAR

STARTCHAR W
ENCODING 87
SWIDTH 568 0
DWIDTH 11 0
BBX 11 20 0 -5
BITMAP
0000
0000
0000
30C0
30C0
30C0
30C0
30C0
36C0
36C0
36C0
3FC0
1980
1980
1980
0000
0000
0000
0000
0000
ENDCHAR

STARTCHAR X
ENCODING 88
SWIDTH 568 0
DWIDTH 11 0
BBX 11 20 0 -5
BITMAP
0000
0000
0000
3180
3180
3180
1B00
1B00
0E00
0E00
0A00
1B00
3180
3180
3180
0000
0000
0000
0000
0000
ENDCHAR

STARTCHAR Y
ENCODING 89
SWIDTH 568 0
DWIDTH 11 0
BBX 11 20 0 -5
BITMAP
0000
0000
0000
30C0
30C0
30C0
1980
1980
0F00
0600
0600
0600
0600
0600
0600
0000
0000
0000
0000
0000
ENDCHAR

STARTCHAR Z
ENCODING 90
SWIDTH 568 0
DWIDTH 11 0
BBX 11 20 0 -5
BITMAP
0000
0000
0000
3FC0
30C0
0180
0180
0300
0600
0600
0C00
1800
1800
3180
3F80
0000
0000
0000
0000
0000
ENDCHAR

STARTCHAR bracketleft
ENCODING 91
SWIDTH 568 0
DWIDTH 11 0
BBX 11 20 0 -5
BITMAP
0000
0000
0F00
0C00
0C00
0C00
0C00
0C00
0C00
0C00
0C00
0C00
0C00
0C00
0C00
0F00
0000
0000
0000
0000
ENDCHAR

STARTCHAR backslash
ENCODING 92
SWIDTH 568 0
DWIDTH 11 0
BBX 11 20 0 -5
BITMAP
0000
0000
0000
3000
1000
1800
0800
0C00
0400
0600
0200
0300
0100
0180
0080
00C0
0000
0000
0000
0000
ENDCHAR

STARTCHAR bracketright
ENCODING 93
SWIDTH 568 0
DWIDTH 11 0
BBX 11 20 0 -5
BITMAP
0000
0000
0F00
0300
0300
0300
0300
0300
0300
0300
0300
0300
0300
0300
0300
0F00
0000
0000
0000
0000
ENDCHAR

STARTCHAR asciicircum
ENCODING 94
SWIDTH 568 0
DWIDTH 11 0
BBX 11 20 0 -5
BITMAP
0000
0000
0000
0000
0000
0000
0200
0700
0D80
18C0
0000
0000
0000
0000
0000
0000
0000
0000
0000
0000
ENDCHAR

STARTCHAR underscore
ENCODING 95
SWIDTH 568 0
DWIDTH 11 0
BBX 11 20 0 -5
BITMAP
0000
0000
0000
0000
0000
0000
0000
0000
0000
0000
0000
0000
0000
7FE0
7FE0
0000
0000
0000
0000
0000
ENDCHAR

STARTCHAR quoteleft
ENCODING 96
SWIDTH 568 0
DWIDTH 11 0
BBX 11 20 0 -5
BITMAP
0000
0000
1800
1C00
0600
0300
0080
0000
0000
0000
0000
0000
0000
0000
0000
0000
0000
0000
0000
0000
ENDCHAR

STARTCHAR a
ENCODING 97
SWIDTH 568 0
DWIDTH 11 0
BBX 11 20 0 -5
BITMAP
0000
0000
0000
0000
0000
0000
1F00
3180
0180
0180
3F80
6180
6180
7380
3DC0
0000
0000
0000
0000
0000
ENDCHAR

STARTCHAR b
ENCODING 98
SWIDTH 568 0
DWIDTH 11 0
BBX 11 20 0 -5
BITMAP
0000
0000
0000
3000
3000
3000
3700
3980
30C0
30C0
30C0
30C0
30C0
3980
3700
0000
0000
0000
0000
0000
ENDCHAR

STARTCHAR c
ENCODING 99
SWIDTH 568 0
DWIDTH 11 0
BBX 11 20 0 -5
BITMAP
0000
0000
0000
0000
0000
0000
0F80
18C0
3000
3000
3000
3000
3040
18C0
0F80
0000
0000
0000
0000
0000
ENDCHAR

STARTCHAR d
ENCODING 100
SWIDTH 568 0
DWIDTH 11 0
BBX 11 20 0 -5
BITMAP
0000
0000
0000
0180
0180
0180
1D80
3380
6180
6180
6180
6180
6180
3380
1D80
0000
0000
0000
0000
0000
ENDCHAR

STARTCHAR e
ENCODING 101
SWIDTH 568 0
DWIDTH 11 0
BBX 11 20 0 -5
BITMAP
0000
0000
0000
0000
0000
0000
1F00
3180
60C0
60C0
7FC0
6000
6000
30C0
1F80
0000
0000
0000
0000
0000
ENDCHAR

STARTCHAR f
ENCODING 102
SWIDTH 568 0
DWIDTH 11 0
BBX 11 20 0 -5
BITMAP
0000
0000
0000
07C0
0C00
0C00
3FC0
0C00
0C00
0C00
0C00
0C00
0C00
0C00
0C00
0000
0000
0000
0000
0000
ENDCHAR

STARTCHAR g
ENCODING 103
SWIDTH 568 0
DWIDTH 11 0
BBX 11 20 0 -5
BITMAP
0000
0000
0000
0000
0000
0000
1F80
3180
6180
6180
6180
6180
6180
3380
1D80
0180
0300
3E00
0000
0000
ENDCHAR

STARTCHAR h
ENCODING 104
SWIDTH 568 0
DWIDTH 11 0
BBX 11 20 0 -5
BITMAP
0000
0000
0000
3000
3000
3000
3700
3B80
3180
3180
3180
3180
3180
3180
3180
0000
0000
0000
0000
0000
ENDCHAR

STARTCHAR i
ENCODING 105
SWIDTH 570 0
DWIDTH 11 0
BBX 11 20 0 -5
BITMAP
0000
0000
0600
0600
0000
0000
1E00
0600
0600
0600
0600
0600
0600
0600
3FC0
0000
0000
0000
0000
0000
ENDCHAR

STARTCHAR j
ENCODING 106
SWIDTH 568 0
DWIDTH 11 0
BBX 11 20 0 -5
BITMAP
0000
0000
0300
0300
0000
0000
0300
0300
0300
0300
0300
0300
0300
0300
0300
0300
0300
3E00
0000
0000
ENDCHAR

STARTCHAR k
ENCODING 107
SWIDTH 568 0
DWIDTH 11 0
BBX 11 20 0 -5
BITMAP
0000
0000
0000
3000
3000
3000
3180
3300
3600
3C00
3C00
3600
3300
3180
30C0
0000
0000
0000
0000
0000
ENDCHAR

STARTCHAR l
ENCODING 108
SWIDTH 568 0
DWIDTH 11 0
BBX 11 20 0 -5
BITMAP
0000
0000
0000
1E00
0600
0600
0600
0600
0600
0600
0600
0600
0600
0600
3FC0
0000
0000
0000
0000
0000
ENDCHAR

STARTCHAR m
ENCODING 109
SWIDTH 568 0
DWIDTH 11 0
BBX 11 20 0 -5
BITMAP
0000
0000
0000
0000
0000
0000
6D80
76C0
64C0
64C0
64C0
64C0
64C0
64C0
64C0
0000
0000
0000
0000
0000
ENDCHAR

STARTCHAR n
ENCODING 110
SWIDTH 568 0
DWIDTH 11 0
BBX 11 20 0 -5
BITMAP
0000
0000
0000
0000
0000
0000
3700
3980
3180
3180
3180
3180
3180
3180
3180
0000
0000
0000
0000
0000
ENDCHAR

STARTCHAR o
ENCODING 111
SWIDTH 568 0
DWIDTH 11 0
BBX 11 20 0 -5
BITMAP
0000
0000
0000
0000
0000
0000
1F00
3180
60C0
60C0
60C0
60C0
60C0
3180
1F00
0000
0000
0000
0000
0000
ENDCHAR

STARTCHAR p
ENCODING 112
SWIDTH 568 0
DWIDTH 11 0
BBX 11 20 0 -5
BITMAP
0000
0000
0000
0000
0000
0000
3700
3980
30C0
30C0
30C0
30C0
30C0
3980
3700
3000
3000
3000
0000
0000
ENDCHAR

STARTCHAR q
ENCODING 113
SWIDTH 568 0
DWIDTH 11 0
BBX 11 20 0 -5
BITMAP
0000
0000
0000
0000
0000
0000
1F80
3180
6180
6180
6180
6180
6180
3380
1D80
0180
0180
0180
0000
0000
ENDCHAR

STARTCHAR r
ENCODING 114
SWIDTH 568 0
DWIDTH 11 0
BBX 11 20 0 -5
BITMAP
0000
0000
0000
0000
0000
0000
19C0
1EC0
1C00
1800
1800
1800
1800
1800
1800
0000
0000
0000
0000
0000
ENDCHAR

STARTCHAR s
ENCODING 115
SWIDTH 568 0
DWIDTH 11 0
BBX 11 20 0 -5
BITMAP
0000
0000
0000
0000
0000
0000
1F80
30C0
3000
3C00
1F80
03C0
00C0
30C0
1F80
0000
0000
0000
0000
0000
ENDCHAR

STARTCHAR t
ENCODING 116
SWIDTH 568 0
DWIDTH 11 0
BBX 11 20 0 -5
BITMAP
0000
0000
0000
1800
1800
1800
7F80
1800
1800
1800
1800
1800
1800
18C0
0F00
0000
0000
0000
0000
0000
ENDCHAR

STARTCHAR u
ENCODING 117
SWIDTH 568 0
DWIDTH 11 0
BBX 11 20 0 -5
BITMAP
0000
0000
0000
0000
0000
0000
3180
3180
3180
3180
3180
3180
3180
3380
1D80
0000
0000
0000
0000
0000
ENDCHAR

STARTCHAR v
ENCODING 118
SWIDTH 568 0
DWIDTH 11 0
BBX 11 20 0 -5
BITMAP
0000
0000
0000
0000
0000
0000
30C0
30C0
30C0
1980
1980
0900
0F00
0600
0600
0000
0000
0000
0000
0000
ENDCHAR

STARTCHAR w
ENCODING 119
SWIDTH 568 0
DWIDTH 11 0
BBX 11 20 0 -5
BITMAP
0000
0000
0000
0000
0000
0000
60C0
64C0
64C0
64C0
6EC0
6AC0
3B80
3180
3180
0000
0000
0000
0000
0000
ENDCHAR

STARTCHAR x
ENCODING 120
SWIDTH 568 0
DWIDTH 11 0
BBX 11 20 0 -5
BITMAP
0000
0000
0000
0000
0000
0000
3180
3180
1B00
1F00
0E00
0A00
1B00
3180
3180
0000
0000
0000
0000
0000
ENDCHAR

STARTCHAR y
ENCODING 121
SWIDTH 568 0
DWIDTH 11 0
BBX 11 20 0 -5
BITMAP
0000
0000
0000
0000
0000
0000
30C0
30C0
30C0
1980
1980
0900
0F00
0600
0600
0400
0C00
0C00
0000
0000
ENDCHAR

STARTCHAR z
ENCODING 122
SWIDTH 568 0
DWIDTH 11 0
BBX 11 20 0 -5
BITMAP
0000
0000
0000
0000
0000
0000
3F80
0180
0300
0600
0400
0C00
1800
3000
3F80
0000
0000
0000
0000
0000
ENDCHAR

STARTCHAR braceleft
ENCODING 123
SWIDTH 568 0
DWIDTH 11 0
BBX 11 20 0 -5
BITMAP
0000
0000
0380
0600
0600
0600
0600
0600
0C00
1800
0C00
0600
0600
0600
0600
0600
0380
0000
0000
0000
ENDCHAR

STARTCHAR bar
ENCODING 124
SWIDTH 568 0
DWIDTH 11 0
BBX 11 20 0 -5
BITMAP
0000
0600
0600
0600
0600
0600
0600
0600
0600
0600
0600
0600
0600
0600
0600
0600
0600
0600
0600
0000
ENDCHAR

STARTCHAR braceright
ENCODING 125
SWIDTH 568 0
DWIDTH 11 0
BBX 11 20 0 -5
BITMAP
0000
0000
1C00
0600
0600
0600
0600
0600
0300
0180
0300
0600
0600
0600
0600
0600
1C00
0000
0000
0000
ENDCHAR

STARTCHAR asciitilde
ENCODING 126
SWIDTH 568 0
DWIDTH 11 0
BBX 11 20 0 -5
BITMAP
0000
0000
0000
0000
0000
0000
0000
1880
2E80
2300
0000
0000
0000
0000
0000
0000
0000
0000
0000
0000
ENDCHAR

STARTCHAR space
ENCODING 160
SWIDTH 568 0
DWIDTH 11 0
BBX 11 20 0 -5
BITMAP
0000
0000
0000
0000
0000
0000
0000
0000
0000
0000
0000
0000
0000
0000
0000
0000
0000
0000
0000
0000
ENDCHAR

STARTCHAR afii10023
ENCODING 161
SWIDTH 568 0
DWIDTH 11 0
BBX 11 20 0 -5
BITMAP
0CC0
0CC0
0000
1FC0
1800
1800
1800
1800
1F80
1800
1800
1800
1800
1800
1FC0
0000
0000
0000
0000
0000
ENDCHAR

STARTCHAR afii10051
ENCODING 162
SWIDTH 568 0
DWIDTH 11 0
BBX 11 20 0 -5
BITMAP
0000
0000
0000
FF00
1800
1800
1B80
1DC0
1860
1860
1860
1860
1860
18C0
1980
0000
0000
0000
0000
0000
ENDCHAR

STARTCHAR afii10052
ENCODING 163
SWIDTH 568 0
DWIDTH 11 0
BBX 11 20 0 -5
BITMAP
01C0
0300
0000
1FE0
1800
1800
1800
1800
1800
1800
1800
1800
1800
1800
1800
0000
0000
0000
0000
0000
ENDCHAR

STARTCHAR afii10053
ENCODING 164
SWIDTH 568 0
DWIDTH 11 0
BBX 11 20 0 -5
BITMAP
0000
0000
0000
0F80
18C0
3000
3000
3000
3F00
3000
3000
3000
3040
18C0
0F80
0000
0000
0000
0000
0000
ENDCHAR

STARTCHAR afii10054
ENCODING 165
SWIDTH 568 0
DWIDTH 11 0
BBX 11 20 0 -5
BITMAP
0000
0000
0000
0F00
1980
3000
3000
3C00
1F00
0780
01C0
00C0
00C0
3180
1F00
0000
0000
0000
0000
0000
ENDCHAR

STARTCHAR afii10055
ENCODING 166
SWIDTH 568 0
DWIDTH 11 0
BBX 11 20 0 -5
BITMAP
0000
0000
0000
1F80
0600
0600
0600
0600
0600
0600
0600
0600
0600
0600
1F80
0000
0000
0000
0000
0000
ENDCHAR

STARTCHAR afii10056
ENCODING 167
SWIDTH 568 0
DWIDTH 11 0
BBX 11 20 0 -5
BITMAP
1980
1980
0000
1F80
0600
0600
0600
0600
0600
0600
0600
0600
0600
0600
1F80
0000
0000
0000
0000
0000
ENDCHAR

STARTCHAR afii10057
ENCODING 168
SWIDTH 568 0
DWIDTH 11 0
BBX 11 20 0 -5
BITMAP
0000
0000
0000
0180
0180
0180
0180
0180
0180
0180
0180
0180
0180
3180
1F00
0000
0000
0000
0000
0000
ENDCHAR

STARTCHAR afii10058
ENCODING 169
SWIDTH 568 0
DWIDTH 11 0
BBX 11 20 0 -5
BITMAP
0000
0000
0000
3F00
3300
3300
3300
3300
33C0
3360
3360
3360
3360
3360
33C0
0000
0000
0000
0000
0000
ENDCHAR

STARTCHAR afii10059
ENCODING 170
SWIDTH 568 0
DWIDTH 11 0
BBX 11 20 0 -5
BITMAP
0000
0000
0000
6C00
6C00
6C00
6C00
6C00
7F80
6CC0
6C60
6C60
6C60
6CC0
6F80
0000
0000
0000
0000
0000
ENDCHAR

STARTCHAR afii10060
ENCODING 171
SWIDTH 568 0
DWIDTH 11 0
BBX 11 20 0 -5
BITMAP
0000
0000
0000
FF00
1800
1800
1B80
1CC0
18C0
18C0
18C0
18C0
18C0
18C0
18C0
0000
0000
0000
0000
0000
ENDCHAR

STARTCHAR afii10061
ENCODING 172
SWIDTH 568 0
DWIDTH 11 0
BBX 11 20 0 -5
BITMAP
0380
0600
0000
30C0
30C0
3180
3300
3600
3C00
3E00
3300
3300
3180
30C0
30C0
0000
0000
0000
0000
0000
ENDCHAR

STARTCHAR hyphen
ENCODING 173
SWIDTH 568 0
DWIDTH 11 0
BBX 11 20 0 -5
BITMAP
0000
0000
0000
0000
0000
0000
0000
0000
0000
0000
7FC0
0000
0000
0000
0000
0000
0000
0000
0000
0000
ENDCHAR

STARTCHAR afii10062
ENCODING 174
SWIDTH 568 0
DWIDTH 11 0
BBX 11 20 0 -5
BITMAP
18C0
0F80
0000
30C0
30C0
30C0
1980
1980
0F00
0600
0600
0C00
0C00
3800
3000
0000
0000
0000
0000
0000
ENDCHAR

STARTCHAR afii10145
ENCODING 175
SWIDTH 568 0
DWIDTH 11 0
BBX 11 20 0 -5
BITMAP
0000
0000
0000
30C0
30C0
30C0
30C0
30C0
30C0
30C0
30C0
30C0
30C0
30C0
3FC0
0600
0600
0600
0000
0000
ENDCHAR

STARTCHAR afii10017
ENCODING 176
SWIDTH 568 0
DWIDTH 11 0
BBX 11 20 0 -5
BITMAP
0000
0000
0000
0400
0E00
0A00
1B00
1B00
3180
3180
3180
3F80
60C0
60C0
60C0
0000
0000
0000
0000
0000
ENDCHAR

STARTCHAR afii10018
ENCODING 177
SWIDTH 568 0
DWIDTH 11 0
BBX 11 20 0 -5
BITMAP
0000
0000
0000
3F80
3000
3000
3000
3000
3F00
3180
30C0
30C0
30C0
3180
3F00
0000
0000
0000
0000
0000
ENDCHAR

STARTCHAR afii10019
ENCODING 178
SWIDTH 568 0
DWIDTH 11 0
BBX 11 20 0 -5
BITMAP
0000
0000
0000
3F00
3180
3180
3180
3180
3F00
3180
30C0
30C0
30C0
30C0
3F80
0000
0000
0000
0000
0000
ENDCHAR

STARTCHAR afii10020
ENCODING 179
SWIDTH 568 0
DWIDTH 11 0
BBX 11 20 0 -5
BITMAP
0000
0000
0000
3F80
3000
3000
3000
3000
3000
3000
3000
3000
3000
3000
3000
0000
0000
0000
0000
0000
ENDCHAR

STARTCHAR afii10021
ENCODING 180
SWIDTH 568 0
DWIDTH 11 0
BBX 11 20 0 -5
BITMAP
0000
0000
0000
1FC0
18C0
18C0
18C0
18C0
18C0
18C0
18C0
18C0
18C0
30C0
FFE0
C060
C060
C060
0000
0000
ENDCHAR

STARTCHAR afii10022
ENCODING 181
SWIDTH 568 0
DWIDTH 11 0
BBX 11 20 0 -5
BITMAP
0000
0000
0000
1FC0
1800
1800
1800
1800
1F80
1800
1800
1800
1800
1800
1FC0
0000
0000
0000
0000
0000
ENDCHAR

STARTCHAR afii10024
ENCODING 182
SWIDTH 568 0
DWIDTH 11 0
BBX 11 20 0 -5
BITMAP
0000
0000
0000
6660
6660
76E0
36C0
1F80
0F80
1F80
36C0
76C0
6660
6660
6660
0000
0000
0000
0000
0000
ENDCHAR

STARTCHAR afii10025
ENCODING 183
SWIDTH 568 0
DWIDTH 11 0
BBX 11 20 0 -5
BITMAP
0000
0000
0000
1F00
3180
00C0
00C0
0080
0F00
0180
00C0
00C0
20C0
3180
1F00
0000
0000
0000
0000
0000
ENDCHAR

STARTCHAR afii10026
ENCODING 184
SWIDTH 568 0
DWIDTH 11 0
BBX 11 20 0 -5
BITMAP
0000
0000
0000
30C0
31C0
31C0
32C0
32C0
32C0
34C0
34C0
34C0
38C0
38C0
30C0
0000
0000
0000
0000
0000
ENDCHAR

STARTCHAR afii10027
ENCODING 185
SWIDTH 568 0
DWIDTH 11 0
BBX 11 20 0 -5
BITMAP
18C0
0F80
0000
30C0
31C0
31C0
32C0
32C0
32C0
34C0
34C0
34C0
38C0
38C0
30C0
0000
0000
0000
0000
0000
ENDCHAR

STARTCHAR afii10028
ENCODING 186
SWIDTH 568 0
DWIDTH 11 0
BBX 11 20 0 -5
BITMAP
0000
0000
0000
30C0
30C0
3180
3300
3600
3C00
3E00
3300
3300
3180
30C0
30C0
0000
0000
0000
0000
0000
ENDCHAR

STARTCHAR afii10029
ENCODING 187
SWIDTH 568 0
DWIDTH 11 0
BBX 11 20 0 -5
BITMAP
0000
0000
0000
1FC0
18C0
18C0
18C0
18C0
18C0
18C0
18C0
18C0
18C0
78C0
70C0
0000
0000
0000
0000
0000
ENDCHAR

STARTCHAR afii10030
ENCODING 188
SWIDTH 568 0
DWIDTH 11 0
BBX 11 20 0 -5
BITMAP
0000
0000
0000
30C0
30C0
39C0
39C0
3FC0
36C0
36C0
36C0
36C0
30C0
30C0
30C0
0000
0000
0000
0000
0000
ENDCHAR

STARTCHAR afii10031
ENCODING 189
SWIDTH 568 0
DWIDTH 11 0
BBX 11 20 0 -5
BITMAP
0000
0000
0000
30C0
30C0
30C0
30C0
30C0
3FC0
30C0
30C0
30C0
30C0
30C0
30C0
0000
0000
0000
0000
0000
ENDCHAR

STARTCHAR afii10032
ENCODING 190
SWIDTH 568 0
DWIDTH 11 0
BBX 11 20 0 -5
BITMAP
0000
0000
0000
0F00
1980
30C0
30C0
30C0
30C0
30C0
30C0
30C0
30C0
1980
0F00
0000
0000
0000
0000
0000
ENDCHAR

STARTCHAR afii10033
ENCODING 191
SWIDTH 568 0
DWIDTH 11 0
BBX 11 20 0 -5
BITMAP
0000
0000
0000
3FC0
30C0
30C0
30C0
30C0
30C0
30C0
30C0
30C0
30C0
30C0
30C0
0000
0000
0000
0000
0000
ENDCHAR

STARTCHAR afii10034
ENCODING 192
SWIDTH 568 0
DWIDTH 11 0
BBX 11 20 0 -5
BITMAP
0000
0000
0000
1F80
18C0
18C0
18C0
18C0
18C0
1F80
1800
1800
1800
1800
1800
0000
0000
0000
0000
0000
ENDCHAR

STARTCHAR afii10035
ENCODING 193
SWIDTH 568 0
DWIDTH 11 0
BBX 11 20 0 -5
BITMAP
0000
0000
0000
0F80
18C0
3000
3000
3000
3000
3000
3000
3000
3040
18C0
0F80
0000
0000
0000
0000
0000
ENDCHAR

STARTCHAR afii10036
ENCODING 194
SWIDTH 568 0
DWIDTH 11 0
BBX 11 20 0 -5
BITMAP
0000
0000
0000
3FC0
0600
0600
0600
0600
0600
0600
0600
0600
0600
0600
0600
0000
0000
0000
0000
0000
ENDCHAR

STARTCHAR afii10037
ENCODING 195
SWIDTH 568 0
DWIDTH 11 0
BBX 11 20 0 -5
BITMAP
0000
0000
0000
30C0
30C0
30C0
1980
1980
0F00
0600
0600
0C00
0C00
3800
3000
0000
0000
0000
0000
0000
ENDCHAR

STARTCHAR afii10038
ENCODING 196
SWIDTH 568 0
DWIDTH 11 0
BBX 11 20 0 -5
BITMAP
0000
0000
0000
0600
0600
1F80
36C0
6660
6660
6660
6660
36C0
1F80
0600
0600
0000
0000
0000
0000
0000
ENDCHAR

STARTCHAR afii10039
ENCODING 197
SWIDTH 568 0
DWIDTH 11 0
BBX 11 20 0 -5
BITMAP
0000
0000
0000
3180
3180
3180
1B00
1B00
0E00
0E00
0A00
1B00
3180
3180
3180
0000
0000
0000
0000
0000
ENDCHAR

STARTCHAR afii10040
ENCODING 198
SWIDTH 568 0
DWIDTH 11 0
BBX 11 20 0 -5
BITMAP
0000
0000
0000
30C0
30C0
30C0
30C0
30C0
30C0
30C0
30C0
30C0
30C0
30C0
3FE0
0060
0060
0060
0000
0000
ENDCHAR

STARTCHAR afii10041
ENCODING 199
SWIDTH 568 0
DWIDTH 11 0
BBX 11 20 0 -5
BITMAP
0000
0000
0000
30C0
30C0
30C0
30C0
30C0
30C0
31C0
1EC0
00C0
00C0
00C0
00C0
0000
0000
0000
0000
0000
ENDCHAR

STARTCHAR afii10042
ENCODING 200
SWIDTH 568 0
DWIDTH 11 0
BBX 11 20 0 -5
BITMAP
0000
0000
0000
64C0
64C0
64C0
64C0
64C0
64C0
64C0
64C0
64C0
64C0
64C0
7FC0
0000
0000
0000
0000
0000
ENDCHAR

STARTCHAR afii10043
ENCODING 201
SWIDTH 568 0
DWIDTH 11 0
BBX 11 20 0 -5
BITMAP
0000
0000
0000
64C0
64C0
64C0
64C0
64C0
64C0
64C0
64C0
64C0
64C0
64C0
7FE0
0060
0060
0060
0000
0000
ENDCHAR

STARTCHAR afii10044
ENCODING 202
SWIDTH 568 0
DWIDTH 11 0
BBX 11 20 0 -5
BITMAP
0000
0000
0000
F800
1800
1800
1800
1800
1F80
18C0
1860
1860
1860
18C0
1F80
0000
0000
0000
0000
0000
ENDCHAR

STARTCHAR afii10045
ENCODING 203
SWIDTH 568 0
DWIDTH 11 0
BBX 11 20 0 -5
BITMAP
0000
0000
0000
6060
6060
6060
6060
6060
7C60
6660
6360
6360
6360
6660
7C60
0000
0000
0000
0000
0000
ENDCHAR

STARTCHAR afii10046
ENCODING 204
SWIDTH 568 0
DWIDTH 11 0
BBX 11 20 0 -5
BITMAP
0000
0000
0000
3000
3000
3000
3000
3000
3F00
3180
30C0
30C0
30C0
3180
3F00
0000
0000
0000
0000
0000
ENDCHAR

STARTCHAR afii10047
ENCODING 205
SWIDTH 568 0
DWIDTH 11 0
BBX 11 20 0 -5
BITMAP
0000
0000
0000
1F00
3180
60C0
0060
0060
0FE0
0060
0060
0060
60C0
3180
1F00
0000
0000
0000
0000
0000
ENDCHAR

STARTCHAR afii10048
ENCODING 206
SWIDTH 568 0
DWIDTH 11 0
BBX 11 20 0 -5
BITMAP
0000
0000
0000
C380
C6C0
CC60
CC60
CC60
FC60
CC60
CC60
CC60
CC60
C6C0
C380
0000
0000
0000
0000
0000
ENDCHAR

STARTCHAR afii10049
ENCODING 207
SWIDTH 568 0
DWIDTH 11 0
BBX 11 20 0 -5
BITMAP
0000
0000
0000
1FC0
30C0
30C0
30C0
30C0
30C0
0FC0
18C0
18C0
30C0
30C0
30C0
0000
0000
0000
0000
0000
ENDCHAR

STARTCHAR afii10065
ENCODING 208
SWIDTH 568 0
DWIDTH 11 0
BBX 11 20 0 -5
BITMAP
0000
0000
0000
0000
0000
0000
1F00
3180
0180
0180
3F80
6180
6180
7380
3DC0
0000
0000
0000
0000
0000
ENDCHAR

STARTCHAR afii10066
ENCODING 209
SWIDTH 568 0
DWIDTH 11 0
BBX 11 20 0 -5
BITMAP
0000
0000
0000
0080
1F00
2000
5F00
7180
60C0
60C0
60C0
60C0
60C0
3180
1F00
0000
0000
0000
0000
0000
ENDCHAR

STARTCHAR afii10067
ENCODING 210
SWIDTH 568 0
DWIDTH 11 0
BBX 11 20 0 -5
BITMAP
0000
0000
0000
0000
0000
0000
3F00
3180
3180
3180
3F00
3180
3180
3180
3F00
0000
0000
0000
0000
0000
ENDCHAR

STARTCHAR afii10068
ENCODING 211
SWIDTH 568 0
DWIDTH 11 0
BBX 11 20 0 -5
BITMAP
0000
0000
0000
0000
0000
0000
1FC0
1800
1800
1800
1800
1800
1800
1800
1800
0000
0000
0000
0000
0000
ENDCHAR

STARTCHAR afii10069
ENCODING 212
SWIDTH 568 0
DWIDTH 11 0
BBX 11 20 0 -5
BITMAP
0000
0000
0000
0000
0000
0000
1FC0
18C0
18C0
18C0
18C0
18C0
18C0
30C0
FFE0
C060
C060
0000
0000
0000
ENDCHAR

STARTCHAR afii10070
ENCODING 213
SWIDTH 568 0
DWIDTH 11 0
BBX 11 20 0 -5
BITMAP
0000
0000
0000
0000
0000
0000
1F00
3180
60C0
60C0
7FC0
6000
6000
30C0
1F80
0000
0000
0000
0000
0000
ENDCHAR

STARTCHAR afii10072
ENCODING 214
SWIDTH 568 0
DWIDTH 11 0
BBX 11 20 0 -5
BITMAP
0000
0000
0000
0000
0000
0000
6660
6660
76E0
1F80
0F00
1F80
36C0
6660
6660
0000
0000
0000
0000
0000
ENDCHAR

STARTCHAR afii10073
ENCODING 215
SWIDTH 568 0
DWIDTH 11 0
BBX 11 20 0 -5
BITMAP
0000
0000
0000
0000
0000
0000
1F00
3180
00C0
0080
0700
0080
20C0
3180
1F00
0000
0000
0000
0000
0000
ENDCHAR

STARTCHAR afii10074
ENCODING 216
SWIDTH 568 0
DWIDTH 11 0
BBX 11 20 0 -5
BITMAP
0000
0000
0000
0000
0000
0000
30C0
31C0
31C0
32C0
34C0
38C0
38C0
30C0
30C0
0000
0000
0000
0000
0000
ENDCHAR

STARTCHAR afii10075
ENCODING 217
SWIDTH 568 0
DWIDTH 11 0
BBX 11 20 0 -5
BITMAP
0000
0000
18C0
18C0
0F80
0000
30C0
31C0
31C0
32C0
34C0
38C0
38C0
30C0
30C0
0000
0000
0000
0000
0000
ENDCHAR

STARTCHAR afii10076
ENCODING 218
SWIDTH 568 0
DWIDTH 11 0
BBX 11 20 0 -5
BITMAP
0000
0000
0000
0000
0000
0000
30C0
3180
3300
3600
3C00
3600
3300
3180
30C0
0000
0000
0000
0000
0000
ENDCHAR

STARTCHAR afii10077
ENCODING 219
SWIDTH 568 0
DWIDTH 11 0
BBX 11 20 0 -5
BITMAP
0000
0000
0000
0000
0000
0000
1FC0
18C0
18C0
18C0
18C0
18C0
18C0
78C0
70C0
0000
0000
0000
0000
0000
ENDCHAR

STARTCHAR afii10078
ENCODING 220
SWIDTH 568 0
DWIDTH 11 0
BBX 11 20 0 -5
BITMAP
0000
0000
0000
0000
0000
0000
6060
70E0
70E0
79E0
6960
6660
6660
6660
6060
0000
0000
0000
0000
0000
ENDCHAR

STARTCHAR afii10079
ENCODING 221
SWIDTH 568 0
DWIDTH 11 0
BBX 11 20 0 -5
BITMAP
0000
0000
0000
0000
0000
0000
3180
3180
3180
3180
3F80
3180
3180
3180
3180
0000
0000
0000
0000
0000
ENDCHAR

STARTCHAR afii10080
ENCODING 222
SWIDTH 568 0
DWIDTH 11 0
BBX 11 20 0 -5
BITMAP
0000
0000
0000
0000
0000
0000
1F00
3180
60C0
60C0
60C0
60C0
60C0
3180
1F00
0000
0000
0000
0000
0000
ENDCHAR

STARTCHAR afii10081
ENCODING 223
SWIDTH 568 0
DWIDTH 11 0
BBX 11 20 0 -5
BITMAP
0000
0000
0000
0000
0000
0000
3F80
3180
3180
3180
3180
3180
3180
3180
3180
0000
0000
0000
0000
0000
ENDCHAR

STARTCHAR afii10082
ENCODING 224
SWIDTH 568 0
DWIDTH 11 0
BBX 11 20 0 -5
BITMAP
0000
0000
0000
0000
0000
0000
3700
3980
30C0
30C0
30C0
30C0
30C0
3980
3700
3000
3000
3000
0000
0000
ENDCHAR

STARTCHAR afii10083
ENCODING 225
SWIDTH 568 0
DWIDTH 11 0
BBX 11 20 0 -5
BITMAP
0000
0000
0000
0000
0000
0000
0F80
18C0
3000
3000
3000
3000
3040
18C0
0F80
0000
0000
0000
0000
0000
ENDCHAR

STARTCHAR afii10084
ENCODING 226
SWIDTH 568 0
DWIDTH 11 0
BBX 11 20 0 -5
BITMAP
0000
0000
0000
0000
0000
0000
7FE0
0600
0600
0600
0600
0600
0600
0600
0600
0000
0000
0000
0000
0000
ENDCHAR

STARTCHAR afii10085
ENCODING 227
SWIDTH 568 0
DWIDTH 11 0
BBX 11 20 0 -5
BITMAP
0000
0000
0000
0000
0000
0000
30C0
30C0
30C0
1980
1980
0900
0F00
0600
0600
0400
0C00
0C00
0000
0000
ENDCHAR

STARTCHAR afii10086
ENCODING 228
SWIDTH 568 0
DWIDTH 11 0
BBX 11 20 0 -5
BITMAP
0000
0000
0000
0400
0400
0400
1F00
3580
64C0
64C0
64C0
64C0
64C0
3580
1F00
0400
0400
0400
0000
0000
ENDCHAR

STARTCHAR afii10087
ENCODING 229
SWIDTH 568 0
DWIDTH 11 0
BBX 11 20 0 -5
BITMAP
0000
0000
0000
0000
0000
0000
3180
3180
1B00
1F00
0E00
0A00
1B00
3180
3180
0000
0000
0000
0000
0000
ENDCHAR

STARTCHAR afii10088
ENCODING 230
SWIDTH 568 0
DWIDTH 11 0
BBX 11 20 0 -5
BITMAP
0000
0000
0000
0000
0000
0000
3180
3180
3180
3180
3180
3180
3180
3180
3FC0
00C0
00C0
00C0
0000
0000
ENDCHAR

STARTCHAR afii10089
ENCODING 231
SWIDTH 568 0
DWIDTH 11 0
BBX 11 20 0 -5
BITMAP
0000
0000
0000
0000
0000
0000
6180
6180
6180
6180
6380
3D80
0180
0180
0180
0000
0000
0000
0000
0000
ENDCHAR

STARTCHAR afii10090
ENCODING 232
SWIDTH 568 0
DWIDTH 11 0
BBX 11 20 0 -5
BITMAP
0000
0000
0000
0000
0000
0000
64C0
64C0
64C0
64C0
64C0
64C0
64C0
64C0
7FC0
0000
0000
0000
0000
0000
ENDCHAR

STARTCHAR afii10091
ENCODING 233
SWIDTH 568 0
DWIDTH 11 0
BBX 11 20 0 -5
BITMAP
0000
0000
0000
0000
0000
0000
64C0
64C0
64C0
64C0
64C0
64C0
64C0
64C0
7FE0
0060
0060
0000
0000
0000
ENDCHAR

STARTCHAR afii10092
ENCODING 234
SWIDTH 568 0
DWIDTH 11 0
BBX 11 20 0 -5
BITMAP
0000
0000
0000
0000
0000
0000
F800
1800
1800
1F80
18C0
1860
1860
18C0
1F80
0000
0000
0000
0000
0000
ENDCHAR

STARTCHAR afii10093
ENCODING 235
SWIDTH 568 0
DWIDTH 11 0
BBX 11 20 0 -5
BITMAP
0000
0000
0000
0000
0000
0000
C060
C060
C060
FC60
C660
C360
C360
C660
FC60
0000
0000
0000
0000
0000
ENDCHAR

STARTCHAR afii10094
ENCODING 236
SWIDTH 568 0
DWIDTH 11 0
BBX 11 20 0 -5
BITMAP
0000
0000
0000
0000
0000
0000
3000
3000
3000
3F00
3180
30C0
30C0
3180
3F00
0000
0000
0000
0000
0000
ENDCHAR

STARTCHAR afii10095
ENCODING 237
SWIDTH 568 0
DWIDTH 11 0
BBX 11 20 0 -5
BITMAP
0000
0000
0000
0000
0000
0000
1F00
3180
40C0
00C0
0FC0
00C0
40C0
6180
3F00
0000
0000
0000
0000
0000
ENDCHAR

STARTCHAR afii10096
ENCODING 238
SWIDTH 568 0
DWIDTH 11 0
BBX 11 20 0 -5
BITMAP
0000
0000
0000
0000
0000
0000
6380
66C0
6C60
6C60
7C60
6C60
6C60
66C0
6380
0000
0000
0000
0000
0000
ENDCHAR

STARTCHAR afii10097
ENCODING 239
SWIDTH 568 0
DWIDTH 11 0
BBX 11 20 0 -5
BITMAP
0000
0000
0000
0000
0000
0000
0F80
1980
3180
1980
0F80
0D80
1980
3180
6180
0000
0000
0000
0000
0000
ENDCHAR

STARTCHAR afii61352
ENCODING 240
SWIDTH 568 0
DWIDTH 11 0
BBX 11 20 0 -5
BITMAP
0000
0000
0000
4200
62C0
62C0
62C0
52C0
52C0
4A00
4AC0
4600
4600
4600
4200
0000
0000
0000
0000
0000
ENDCHAR

STARTCHAR afii10071
ENCODING 241
SWIDTH 568 0
DWIDTH 11 0
BBX 11 20 0 -5
BITMAP
0000
0000
0000
3180
3180
0000
1F00
3180
60C0
60C0
7FC0
6000
6000
30C0
1F80
0000
0000
0000
0000
0000
ENDCHAR

STARTCHAR afii10099
ENCODING 242
SWIDTH 568 0
DWIDTH 11 0
BBX 11 20 0 -5
BITMAP
0000
0000
3000
3000
FE00
3000
3700
3B80
3180
3180
3180
3180
3180
3180
3180
0180
0180
0300
1E00
0000
ENDCHAR

STARTCHAR afii10100
ENCODING 243
SWIDTH 568 0
DWIDTH 11 0
BBX 11 20 0 -5
BITMAP
0000
0000
0000
0380
0600
0000
1FC0
1800
1800
1800
1800
1800
1800
1800
1800
0000
0000
0000
0000
0000
ENDCHAR

STARTCHAR afii10101
ENCODING 244
SWIDTH 568 0
DWIDTH 11 0
BBX 11 20 0 -5
BITMAP
0000
0000
0000
0000
0000
0000
1F00
3180
60C0
6000
7E00
6000
60C0
3180
1F00
0000
0000
0000
0000
0000
ENDCHAR

STARTCHAR afii10102
ENCODING 245
SWIDTH 568 0
DWIDTH 11 0
BBX 11 20 0 -5
BITMAP
0000
0000
0000
0000
0000
0000
1F80
30C0
3000
3C00
1F80
03C0
00C0
30C0
1F80
0000
0000
0000
0000
0000
ENDCHAR

STARTCHAR afii10103
ENCODING 246
SWIDTH 570 0
DWIDTH 11 0
BBX 11 20 0 -5
BITMAP
0000
0000
0600
0600
0000
0000
1E00
0600
0600
0600
0600
0600
0600
0600
3FC0
0000
0000
0000
0000
0000
ENDCHAR

STARTCHAR afii10104
ENCODING 247
SWIDTH 568 0
DWIDTH 11 0
BBX 11 20 0 -5
BITMAP
0000
0000
3300
3300
0000
0000
1E00
0600
0600
0600
0600
0600
0600
0600
3FC0
0000
0000
0000
0000
0000
ENDCHAR

STARTCHAR afii10105
ENCODING 248
SWIDTH 568 0
DWIDTH 11 0
BBX 11 20 0 -5
BITMAP
0000
0000
0300
0300
0000
0000
0300
0300
0300
0300
0300
0300
0300
0300
0300
0300
0300
3E00
0000
0000
ENDCHAR

STARTCHAR afii10106
ENCODING 249
SWIDTH 568 0
DWIDTH 11 0
BBX 11 20 0 -5
BITMAP
0000
0000
0000
0000
0000
0000
1F00
1B00
1B00
1BC0
1B60
1B60
1B60
7B60
73C0
0000
0000
0000
0000
0000
ENDCHAR

STARTCHAR afii10107
ENCODING 250
SWIDTH 568 0
DWIDTH 11 0
BBX 11 20 0 -5
BITMAP
0000
0000
0000
0000
0000
0000
6600
6600
6600
67C0
7E60
6660
6660
6660
67C0
0000
0000
0000
0000
0000
ENDCHAR

STARTCHAR afii10108
ENCODING 251
SWIDTH 568 0
DWIDTH 11 0
BBX 11 20 0 -5
BITMAP
0000
0000
0000
3000
3000
7C00
3000
3700
3B80
3180
3180
3180
3180
3180
3180
0000
0000
0000
0000
0000
ENDCHAR

STARTCHAR afii10109
ENCODING 252
SWIDTH 568 0
DWIDTH 11 0
BBX 11 20 0 -5
BITMAP
0000
0000
0000
0380
0600
0000
30C0
3180
3300
3600
3C00
3600
3300
3180
30C0
0000
0000
0000
0000
0000
ENDCHAR

STARTCHAR section
ENCODING 253
SWIDTH 568 0
DWIDTH 11 0
BBX 11 20 0 -5
BITMAP
0000
0000
0000
0F80
18C0
18C0
1800
1E00
1300
1180
18C0
0C40
0640
03C0
00C0
18C0
1F80
0000
0000
0000
ENDCHAR

STARTCHAR afii10110
ENCODING 254
SWIDTH 568 0
DWIDTH 11 0
BBX 11 20 0 -5
BITMAP
0000
0000
18C0
18C0
0F80
0000
30C0
30C0
30C0
1980
1980
0900
0F00
0600
0600
0400
0C00
0C00
0000
0000
ENDCHAR

STARTCHAR afii10193
ENCODING 255
SWIDTH 568 0
DWIDTH 11 0
BBX 11 20 0 -5
BITMAP
0000
0000
0000
0000
0000
0000
3180
3180
3180
3180
3180
3180
3180
3180
3F80
0400
0400
0400
0000
0000
ENDCHAR
ENDFONT
